<svg version="1.1" xmlns="http://www.w3.org/2000/svg" xmlns:xlink="http://www.w3.org/1999/xlink" viewBox="0 0 172 172"><g fill="none" fill-rule="nonzero" stroke="none" stroke-width="1" stroke-linecap="butt" stroke-linejoin="miter" stroke-miterlimit="10" stroke-dasharray="" stroke-dashoffset="0" font-family="none" font-weight="none" font-size="none" text-anchor="none" style="mix-blend-mode: normal"><path d="M0,172v-172h172v172z" fill="none"></path><g><path d="M146.91667,150.5h-121.83333v-139.75h121.83333z" fill="#ffa000"></path><path d="M25.08333,146.91667h121.83333v7.16667v7.16667h-14.33333v-1.43333c0,-4.3 -1.43333,-5.73333 -5.73333,-5.73333h-81.7c-4.3,0 -5.73333,1.43333 -5.73333,5.73333v1.43333h-14.33333v-7.16667zM89.58333,103.91667v-93.16667h-7.16667v93.16667h-57.33333v7.16667h121.83333v-7.16667zM25.08333,132.58333h121.83333v-7.16667h-121.83333z" fill="#ef6c00"></path><path d="M107.5,53.75v14.33333c0,2.15 -1.43333,3.58333 -3.58333,3.58333c-2.15,0 -3.58333,-1.43333 -3.58333,-3.58333v-14.33333c0,-2.15 1.43333,-3.58333 3.58333,-3.58333c2.15,0 3.58333,1.43333 3.58333,3.58333zM68.08333,50.16667c-2.15,0 -3.58333,1.43333 -3.58333,3.58333v14.33333c0,2.15 1.43333,3.58333 3.58333,3.58333c2.15,0 3.58333,-1.43333 3.58333,-3.58333v-14.33333c0,-2.15 -1.43333,-3.58333 -3.58333,-3.58333zM86,114.66667c-2.15,0 -3.58333,1.43333 -3.58333,3.58333c0,2.15 1.43333,3.58333 3.58333,3.58333c2.15,0 3.58333,-1.43333 3.58333,-3.58333c0,-2.15 -1.43333,-3.58333 -3.58333,-3.58333zM86,136.16667c-2.15,0 -3.58333,1.43333 -3.58333,3.58333c0,2.15 1.43333,3.58333 3.58333,3.58333c2.15,0 3.58333,-1.43333 3.58333,-3.58333c0,-2.15 -1.43333,-3.58333 -3.58333,-3.58333z" fill="#703e16"></path></g></g></svg>