<svg version="1.1" xmlns="http://www.w3.org/2000/svg" xmlns:xlink="http://www.w3.org/1999/xlink" viewBox="0 0 200 200"><g fill="none" fill-rule="nonzero" stroke="none" stroke-width="1" stroke-linecap="butt" stroke-linejoin="miter" stroke-miterlimit="10" stroke-dasharray="" stroke-dashoffset="0" font-family="none" font-weight="none" font-size="none" text-anchor="none" style="mix-blend-mode: normal"><path d="M0,172v-172h172v172z" fill="none"></path><g fill="#000000"><path d="M74.82,0c-1.53187,0.28219 -2.67406,1.57219 -2.795,3.1175c-2.13656,23.90531 -15.95031,39.68094 -29.9925,56.0075c-14.04219,16.32656 -28.2725,33.39219 -28.2725,59.0175c0,17.56281 7.86094,31.175 18.1675,40.205c10.30656,9.03 22.92438,13.6525 33.4325,13.6525c1.23625,0.01344 2.39188,-0.63156 3.02344,-1.70656c0.61813,-1.075 0.61813,-2.39187 0,-3.46687c-0.63156,-1.075 -1.78719,-1.72 -3.02344,-1.70656c-8.41187,0 -19.87406,-4.00437 -28.9175,-11.9325c-9.04344,-7.92812 -15.8025,-19.51125 -15.8025,-35.045c0,-23.09906 12.67156,-38.33719 26.66,-54.61c12.91344,-15.02312 26.49875,-31.16156 30.4225,-54.18c52.09719,36.53656 73.6375,73.67781 73.6375,101.5875c0,26.52563 -16.19219,47.87781 -32.25,54.395c-1.78719,0.71219 -2.64719,2.72781 -1.935,4.515c0.71219,1.78719 2.72781,2.64719 4.515,1.935c19.30969,-7.83406 36.55,-31.56469 36.55,-60.845c0,-32.22312 -24.4025,-72.03844 -80.84,-110.295c-0.65844,-0.47031 -1.45125,-0.69875 -2.2575,-0.645c-0.1075,0 -0.215,0 -0.3225,0zM88.0425,52.9975c-0.94062,0.1075 -1.78719,0.59125 -2.365,1.34375c-0.56437,0.7525 -0.79281,1.70656 -0.645,2.63375c2.09625,12.12063 2.60688,22.09125 1.935,29.5625c-0.67187,7.47125 -2.53969,12.44313 -4.515,14.7275c-1.97531,2.28438 -3.48031,2.56656 -6.45,1.29c-2.96969,-1.27656 -7.16219,-4.97187 -11.395,-11.5025c-0.60469,-0.92719 -1.62594,-1.505 -2.74125,-1.54531c-1.10187,-0.04031 -2.16344,0.45688 -2.84875,1.33031c-12.83281,17.3075 -12.255,31.14813 -7.74,40.0975c4.515,8.94938 12.47,13.115 12.47,13.115c1.08844,0.76594 2.51281,0.83313 3.68188,0.18813c1.15562,-0.65844 1.8275,-1.92156 1.73344,-3.25188c-0.09406,-1.33031 -0.95406,-2.4725 -2.19031,-2.95625c0,0 -6.1275,-3.29219 -9.5675,-10.105c-3.1175,-6.19469 -3.93719,-15.48 4.73,-29.025c3.62813,4.68969 7.28313,8.31781 11.18,9.9975c5.03906,2.16344 10.76344,0.98094 14.2975,-3.1175c3.53406,-4.09844 5.4825,-10.41406 6.235,-18.705c0.52406,-5.79156 0.1075,-12.96719 -0.7525,-20.855c9.31219,9.20469 16.86406,19.12156 19.8875,29.885c3.78938,13.49125 1.89469,27.78875 -9.1375,42.8925c-1.12875,1.54531 -0.79281,3.70875 0.7525,4.8375c1.54531,1.12875 3.70875,0.79281 4.8375,-0.7525c12.05344,-16.50125 14.53938,-33.44594 10.2125,-48.805c-4.32687,-15.35906 -15.18437,-29.11906 -29.025,-40.5275c-0.72562,-0.59125 -1.65281,-0.86 -2.58,-0.7525z"></path></g></g></svg>