<?xml version="1.0" ?><svg viewBox="0 0 32 32" xmlns="http://www.w3.org/2000/svg"><title/><g id="Wardrobe"><path d="M26,4H24a2.45,2.45,0,0,0-2.4-2H10.44A2.45,2.45,0,0,0,8,4H6A1,1,0,0,0,5,5V27a1,1,0,0,0,1,1H9v1a1,1,0,0,0,1,1h1a1,1,0,0,0,1-1V28h8v1a1,1,0,0,0,1,1h1a1,1,0,0,0,1-1V28h3a1,1,0,0,0,1-1V5A1,1,0,0,0,26,4ZM15,26H7V9h8Zm10,0H17V9h8ZM25,7H7V6H9a1,1,0,0,0,1-1V4.44A.44.44,0,0,1,10.44,4H21.56a.44.44,0,0,1,.44.44V5a1,1,0,0,0,1,1h2Z"/><path d="M9,25h4a1,1,0,0,0,1-1V11a1,1,0,0,0-1-1H9a1,1,0,0,0-1,1V24A1,1,0,0,0,9,25Zm1-13h2v4H10Zm0,6h2v5H10Z"/><path d="M19,25h4a1,1,0,0,0,1-1V11a1,1,0,0,0-1-1H19a1,1,0,0,0-1,1V24A1,1,0,0,0,19,25Zm1-13h2v4H20Zm0,6h2v5H20Z"/></g></svg>