<?xml version="1.0" ?><svg id="Layer_1" style="enable-background:new 0 0 122.9 122.9;" version="1.1" viewBox="0 0 122.9 122.9" xml:space="preserve" xmlns="http://www.w3.org/2000/svg" xmlns:xlink="http://www.w3.org/1999/xlink"><style type="text/css">
	.st0{fill:none;stroke:#E50013;stroke-width:0.2398;stroke-miterlimit:22.9256;}
	.st1{fill:none;stroke:#000000;stroke-width:5.9998;stroke-linecap:round;stroke-linejoin:round;stroke-miterlimit:22.9256;}
	.st2{fill:none;stroke:#000000;stroke-width:5.9998;stroke-miterlimit:22.9256;}
</style><path d="M61.4,40.2c-10.4,0.4-21-6.2-21.6-19.7L12.4,30v21.9L23.5,48c4.8-1.6,5.8,0.5,5.8,4.3v51.3h32.1h32.1V52.3  c0-3.7,1.1-5.9,5.8-4.3l11.1,3.8V30L83,20.6C82.5,34,71.8,40.6,61.4,40.2 M61.4,19.3H45.8c0,0.1,0,0.2,0,0.4  c0,10.1,8,14.9,15.6,14.6c7.7,0.4,15.6-4.5,15.6-14.6c0-0.1,0-0.2,0-0.4H61.4z M45,13.3h16.4h16.4c1.8,0,2.2-0.1,4,0.5L114.3,25  c1.2,0.4,2.1,1.5,2.1,2.9v26.8c0,3.4-1.7,5-5.6,3.7l-11.3-3.9v49.7c0,4.4-0.9,5.5-5.3,5.5H61.4H28.6c-4.4,0-5.3-1.1-5.3-5.5V54.4  L12,58.3c-3.9,1.4-5.6-0.3-5.6-3.7V27.9c0-1.4,0.9-2.5,2.1-2.9L41,13.8C42.8,13.2,43.2,13.3,45,13.3z"/></svg>